# xmcd
# 
# Track frame offsets:
#     150
#     9105
#     28080
#     50537
#     71402
#     93565
#     114542
#     131875
#     156010
#     177517
#     199792
#     220737
# 
# Disc length: 3352
# 
# Revision: 31
# Processed by: cddbd v1.5.2PL0 Copyright (c) Steve Scherf et al.
# Submitted via: fre:ac v1.0.31
# 
DISCID=a40d160c
DTITLE=DREAMS COME TRUE - MILLION KISSES
DYEAR=1991
DGENRE=JPop
TTITLE0=STELLA OF DREAMS COME TRUE ～OPENING THEME～
TTITLE1=彼は友達 ("What a fabulous" VERSION)
TTITLE2=Goodbye, Darlin'
TTITLE3=愛しのハピィデイズ
TTITLE4=この恋はハードボイルド
TTITLE5=薬指の決心
TTITLE6=あなたにサラダ
TTITLE7=未来予想図
TTITLE8=忘れないで
TTITLE9=4月の雨
TTITLE10=Eyes to me (VERSION #2)
TTITLE11=銀河への船
EXTD=YEAR: 1991
EXTT0=
EXTT1=
EXTT2=
EXTT3=
EXTT4=
EXTT5=
EXTT6=
EXTT7=
EXTT8=
EXTT9=
EXTT10=
EXTT11=
PLAYORDER=
